<?xml version="1.0" encoding="utf-8"?>
<!-- Generator: Adobe Illustrator 30.3.0, SVG Export Plug-In . SVG Version: 9.03 Build 0)  -->
<svg version="1.0" id="Layer_1" xmlns="http://www.w3.org/2000/svg" xmlns:xlink="http://www.w3.org/1999/xlink" x="0px" y="0px"
	 width="680.4px" height="127.6px" viewBox="0 0 680.4 127.6" style="enable-background:new 0 0 680.4 127.6;" xml:space="preserve"
	>
<style type="text/css">
	.st0{fill:#FFFFFF;}
</style>
<g id="Layer_2_00000011029223675041517630000006159384091990577325_">
</g>
<g id="Layer_1_00000098905945193367688120000000500854018855756983_">
	<g>
		<path class="st0" d="M405.3,26.8v0.8h2v25.2h-2v0.7h6.6v-0.7h-2V27.6h2v-0.8C411.9,26.8,405.3,26.8,405.3,26.8z M421.7,53.5v-0.7
			h-3.2v-25l14.1,25.7h1.2V27.6h1.3v-0.8h-5.4v0.8h3.3v21l-12.1-21.8h-5.1v0.8h2v25.2h-2v0.7H421.7L421.7,53.5z M476.2,26.2
			c5.9,0,8.1,4.6,8.4,11.7c-0.9-3.7-4.2-6.1-8.4-6.1s-7.6,2.4-8.5,6.2C468,31.1,470.3,26.2,476.2,26.2 M484.5,42.4
			c-0.4,7-2.6,11.7-8.4,11.7s-8.2-4.6-8.5-12c0.8,3.9,4.1,6.3,8.5,6.3S483.6,46.1,484.5,42.4 M481.2,26.7c5.7,1.9,9.1,7,9.1,13.5
			s-3.5,11.7-9.3,13.6c4.6-2.1,7-7.5,7-14.1C488,33.4,485.4,28.7,481.2,26.7 M464.2,40.8c0,6.3,2.8,11.1,7.3,13
			c-5.9-1.8-9.5-7-9.5-13.6s3.6-11.9,9.6-13.7C466.9,28.6,464.2,33.9,464.2,40.8 M511.4,29c-2.2-2-5.1-2.8-8.1-2.8
			c-5.2,0-10.1,3-10.1,8.6c0,8.9,12.4,6.2,12.4,11.1c0,1.9-2.1,2.8-4,2.8s-3.9-0.9-5.1-2.5l-4.1,4.6c2.5,2.3,5.5,3.3,8.9,3.3
			c5.5,0,10.2-2.8,10.2-8.7c0-9.3-12.2-6.2-12.2-11c0-2,2.3-2.7,3.9-2.7c1.4,0,3.3,0.6,4.2,1.8L511.4,29L511.4,29z M440.3,26.8h18
			v5.5h-12.2v5h11.5v5.4h-11.5v5.4H459v5.4h-18.6L440.3,26.8L440.3,26.8z"/>
		<path class="st0" d="M308,82.2c-0.6,0-0.9-0.3-0.9-0.8v-0.8c0-0.8-0.4-1.2-1.3-1.2h-9.1c-2.5,0-2.9,0.4-2.9,2.4v9.5
			c0,2.1,0.5,2.4,2.9,2.4h9.1c0.9,0,1.3-0.4,1.3-1.2v-2.2h-5.5c-0.6,0-0.9-0.3-0.9-0.8v-4.2c0-0.5,0.3-0.8,0.9-0.8h12.1
			c0.6,0,0.9,0.3,0.9,0.8v8.6c0,4.5-1.6,6-6.2,6h-15.8c-4.4,0-6.4-1.8-6.4-6.1V79.4c0-4.3,2-6.1,6.4-6.1h15.8c4.7,0,6.2,1.5,6.2,6
			v2.1c0,0.5-0.3,0.8-0.9,0.8L308,82.2L308,82.2z"/>
		<path class="st0" d="M357.3,79.4v5.3c0,4.3-1.9,6.5-6.4,6.5h-0.1l7.3,8c0.3,0.3,0.1,0.8-0.3,0.8h-7.5c-0.7,0-1-0.2-1.4-0.7
			l-6.5-7.8H337v7.6c0,0.5-0.3,0.8-0.9,0.8h-5.9c-0.6,0-0.9-0.3-0.9-0.8v-25c0-0.5,0.3-0.8,0.9-0.8h20.7
			C355.4,73.3,357.3,75.1,357.3,79.4 M337,85.4h10c2.2,0,2.5-0.3,2.5-2.2v-1.6c0-1.8-0.3-2.2-2.5-2.2h-10V85.4L337,85.4z"/>
		<path class="st0" d="M398.8,73.3c0.6,0,0.9,0.3,0.9,0.8v4.5c0,0.5-0.3,0.8-0.9,0.8h-18.2v4.1h15.2c0.5,0,0.9,0.3,0.9,0.8v4.2
			c0,0.5-0.3,0.8-0.9,0.8h-15.2v4.4h18.2c0.6,0,0.9,0.3,0.9,0.8V99c0,0.5-0.3,0.8-0.9,0.8h-25c-0.6,0-0.9-0.3-0.9-0.8V74
			c0-0.5,0.3-0.8,0.9-0.8L398.8,73.3L398.8,73.3z"/>
		<path class="st0" d="M432.6,99.9c-0.6,0-1-0.2-1.2-0.7l-10-19.9V99c0,0.5-0.3,0.8-0.9,0.8h-5.3c-0.6,0-0.9-0.3-0.9-0.8V74
			c0-0.5,0.3-0.8,0.9-0.8h10c0.6,0,1,0.2,1.2,0.7l10,19.9V74.1c0-0.5,0.3-0.8,0.9-0.8h5.3c0.6,0,0.9,0.3,0.9,0.8v25
			c0,0.5-0.3,0.8-0.9,0.8H432.6L432.6,99.9z"/>
		<path class="st0" d="M524.7,73.3c5.3,0,8.4,2.9,8.4,8v10.6c0,5.1-3.1,8-8.4,8h-18.9c-0.6,0-0.9-0.3-0.9-0.8v-25
			c0-0.5,0.3-0.8,0.9-0.8L524.7,73.3L524.7,73.3z M512.6,93.8h9.3c2.5,0,3.5-0.8,3.5-2.9v-8.5c0-2.1-1-2.9-3.5-2.9h-9.3V93.8z"/>
		<path class="st0" d="M555.4,74.1v25c0,0.5-0.3,0.8-0.9,0.8h-5.9c-0.6,0-0.9-0.3-0.9-0.8v-25c0-0.5,0.3-0.8,0.9-0.8h5.9
			C555.1,73.3,555.4,73.6,555.4,74.1"/>
		<path class="st0" d="M596,73.3c0.6,0,0.9,0.3,0.9,0.8v4.5c0,0.5-0.3,0.8-0.9,0.8h-18.2v4.1H593c0.5,0,0.9,0.3,0.9,0.8v4.2
			c0,0.5-0.3,0.8-0.9,0.8h-15.2v4.4H596c0.6,0,0.9,0.3,0.9,0.8V99c0,0.5-0.3,0.8-0.9,0.8h-25c-0.6,0-0.9-0.3-0.9-0.8V74
			c0-0.5,0.3-0.8,0.9-0.8L596,73.3L596,73.3z"/>
		<path class="st0" d="M639.5,79.4v5.3c0,4.3-1.9,6.5-6.4,6.5H633l7.3,8c0.3,0.3,0.1,0.8-0.3,0.8h-7.5c-0.7,0-1-0.2-1.4-0.7
			l-6.5-7.8h-5.3v7.6c0,0.5-0.3,0.8-0.9,0.8h-5.9c-0.6,0-0.9-0.3-0.9-0.8v-25c0-0.5,0.3-0.8,0.9-0.8h20.7
			C637.6,73.3,639.5,75.1,639.5,79.4 M619.2,85.4h10.1c2.2,0,2.5-0.3,2.5-2.2v-1.6c0-1.8-0.3-2.2-2.5-2.2h-10.1V85.4L619.2,85.4z"/>
		<path class="st0" d="M478.4,73.3c0.3,0,0.6,0.1,0.8,0.2c0.2,0.1,0.3,0.3,0.4,0.6l10.5,25c0.1,0.2,0.1,0.5,0,0.6
			c-0.1,0.2-0.3,0.3-0.5,0.3h-6.5L474,79l-9.1,21h-6.5c-0.2,0-0.4-0.1-0.5-0.3c-0.1-0.2-0.1-0.4,0-0.6l10.5-25
			c0.1-0.3,0.2-0.5,0.4-0.6c0.2-0.1,0.5-0.2,0.8-0.2H478.4L478.4,73.3z"/>
		<g>
			<path class="st0" d="M28.7,78.9V52.2h7.6l13,21.1l13-21.1H70v26.7h-4.9V56.8L51.6,78.9h-4.4L33.6,56.8v22.1H28.7z"/>
			<path class="st0" d="M77,65.5c0-8.6,5.5-14.1,17.2-14.1s17.2,5.5,17.2,14.1s-5.5,14.1-17.2,14.1S77,74.1,77,65.5L77,65.5z
				 M106.2,65.5c0-6.9-4.4-9.8-12-9.8s-12,2.9-12,9.8s4.4,9.8,12,9.8C101.7,75.3,106.2,72.4,106.2,65.5z"/>
			<path class="st0" d="M122.9,70.3c0,3.3,3,5.2,12.8,5.2c7.8,0,10.7-1.4,10.7-4.1c0-2.9-1.9-3.3-11.9-3.9
				c-11.2-0.6-15.9-2.5-15.9-8.3s6.1-7.7,15.6-7.7s16.1,3,16.2,9h-5.2c0-3.5-3.3-4.8-11.6-4.8c-7.8,0-9.8,1.3-9.8,3.8
				s2,3.3,10.8,3.9c10.4,0.7,16.9,1.2,16.9,7.9c0,6.7-7.1,8.6-15.9,8.6c-10.9,0-17.7-2.3-18.1-9.4L122.9,70.3L122.9,70.3z"/>
			<path class="st0" d="M162.8,70.3c0,3.3,3,5.2,12.8,5.2c7.8,0,10.7-1.4,10.7-4.1c0-2.9-1.9-3.3-11.9-3.9
				c-11.2-0.6-15.9-2.5-15.9-8.3s6.1-7.7,15.6-7.7s16.1,3,16.2,9h-5.2c0-3.5-3.3-4.8-11.6-4.8c-7.8,0-9.8,1.3-9.8,3.8
				s2,3.3,10.8,3.9c10.4,0.7,16.9,1.2,16.9,7.9c0,6.7-7.1,8.6-15.9,8.6c-10.9,0-17.7-2.3-18.1-9.4L162.8,70.3L162.8,70.3z"/>
			<path class="st0" d="M224.1,52.2h6.4l-16,17.9v8.8h-5.2v-8.8l-16-17.9h6.4L211.9,66L224.1,52.2L224.1,52.2z"/>
		</g>
		<rect x="258" y="7.5" class="st0" width="1" height="110.8"/>
	</g>
</g>
</svg>
